# xmcd
#
# Track frame offsets: 
#        150
#        10256
#        26594
#        39741
#        52817
#        71129
#        81930
#        92982
#        106954
#        123437
#        134537
#        147569
#        159582
#        170158
#        192210
#        215968
#
# Disc length: 3149 seconds
#
# Revision: 0
# Processed by: cddbd v1.5.2PL0 Copyright (c) Steve Scherf et al.
# Submitted via: ExactAudioCopy v0.95a5
#
DISCID=f20c4b10
DTITLE=Catherine Soroko - All About You
DYEAR=2007
DGENRE=New Age
TTITLE0=All About You
TTITLE1=Vignajaka
TTITLE2=Hea Ho
TTITLE3=Gauri Ganesh
TTITLE4=Namo Namo Sitanam
TTITLE5=Krishna Krishna
TTITLE6=Mother
TTITLE7=Laxmi Narayana
TTITLE8=We are Part of One Existence
TTITLE9=Shiva Shiva Shambo Shankara
TTITLE10=Radhe Govinda Gopi Gopala
TTITLE11=Bala Mukunda
TTITLE12=Om Namo Ambitabaya
TTITLE13=Devi Ma
TTITLE14=Svagatam Krishna
TTITLE15=True Love
EXTD=
EXTT0=
EXTT1=
EXTT2=
EXTT3=
EXTT4=
EXTT5=
EXTT6=
EXTT7=
EXTT8=
EXTT9=
EXTT10=
EXTT11=
EXTT12=
EXTT13=
EXTT14=
EXTT15=
PLAYORDER=
